<?xml version="1.0" encoding="UTF-8" standalone="no"?>
<!DOCTYPE svg PUBLIC "-//W3C//DTD SVG 1.1//EN"
 "http://www.w3.org/Graphics/SVG/1.1/DTD/svg11.dtd">
<!-- Generated by graphviz version 5.0.0 (20220707.1540)
 -->
<!-- Title: dependencies Pages: 1 -->
<svg width="180pt" height="247pt"
 viewBox="0.00 0.00 180.00 246.80" xmlns="http://www.w3.org/2000/svg" xmlns:xlink="http://www.w3.org/1999/xlink">
<g id="graph0" class="graph" transform="scale(1 1) rotate(0) translate(4 242.8)">
<title>dependencies</title>
<polygon fill="white" stroke="transparent" points="-4,4 -4,-242.8 176,-242.8 176,4 -4,4"/>
<text text-anchor="middle" x="86" y="-8.2" font-family="sans-serif" font-size="14.00">dependencies</text>
<g id="clust1" class="cluster">
<title>cluster_RolesModule</title>
<polygon fill="none" stroke="black" stroke-dasharray="1,5" points="8,-32.8 8,-230.8 164,-230.8 164,-32.8 8,-32.8"/>
</g>
<g id="clust4" class="cluster">
<title>cluster_RolesModule_exports</title>
<polygon fill="none" stroke="black" points="31,-170.8 31,-222.8 141,-222.8 141,-170.8 31,-170.8"/>
</g>
<g id="clust6" class="cluster">
<title>cluster_RolesModule_providers</title>
<polygon fill="none" stroke="black" points="16,-40.8 16,-92.8 156,-92.8 156,-40.8 16,-40.8"/>
</g>
<!-- RolesService  -->
<g id="node1" class="node">
<title>RolesService </title>
<polygon fill="#fb8072" stroke="black" points="132.87,-214.8 39.13,-214.8 39.13,-178.8 132.87,-178.8 132.87,-214.8"/>
<text text-anchor="middle" x="86" y="-192.6" font-family="Times,serif" font-size="14.00">RolesService </text>
</g>
<!-- RolesModule -->
<g id="node2" class="node">
<title>RolesModule</title>
<polygon fill="#8dd3c7" stroke="black" points="131.94,-149.8 128.94,-153.8 107.94,-153.8 104.94,-149.8 40.06,-149.8 40.06,-113.8 131.94,-113.8 131.94,-149.8"/>
<text text-anchor="middle" x="86" y="-127.6" font-family="Times,serif" font-size="14.00">RolesModule</text>
</g>
<!-- RolesModule&#45;&gt;RolesService  -->
<g id="edge1" class="edge">
<title>RolesModule&#45;&gt;RolesService </title>
<path fill="none" stroke="black" stroke-dasharray="5,2" d="M86,-149.91C86,-149.91 86,-168.79 86,-168.79"/>
<polygon fill="black" stroke="black" points="82.5,-168.79 86,-178.79 89.5,-168.79 82.5,-168.79"/>
</g>
<!-- RolesService -->
<g id="node3" class="node">
<title>RolesService</title>
<ellipse fill="#fdb462" stroke="black" cx="86" cy="-66.8" rx="61.98" ry="18"/>
<text text-anchor="middle" x="86" y="-62.6" font-family="Times,serif" font-size="14.00">RolesService</text>
</g>
<!-- RolesService&#45;&gt;RolesModule -->
<g id="edge2" class="edge">
<title>RolesService&#45;&gt;RolesModule</title>
<path fill="none" stroke="black" d="M86,-84.91C86,-84.91 86,-103.79 86,-103.79"/>
<polygon fill="black" stroke="black" points="82.5,-103.79 86,-113.79 89.5,-103.79 82.5,-103.79"/>
</g>
</g>
</svg>
