<?xml version="1.0" encoding="UTF-8" standalone="no"?>
<!DOCTYPE svg PUBLIC "-//W3C//DTD SVG 1.1//EN"
 "http://www.w3.org/Graphics/SVG/1.1/DTD/svg11.dtd">
<!-- Generated by graphviz version 5.0.0 (20220707.1540)
 -->
<!-- Title: dependencies Pages: 1 -->
<svg width="880pt" height="250pt"
 viewBox="0.00 0.00 880.00 249.80" xmlns="http://www.w3.org/2000/svg" xmlns:xlink="http://www.w3.org/1999/xlink">
<g id="graph0" class="graph" transform="scale(1 1) rotate(0) translate(4 245.8)">
<title>dependencies</title>
<polygon fill="white" stroke="transparent" points="-4,4 -4,-245.8 876,-245.8 876,4 -4,4"/>
<text text-anchor="middle" x="436" y="-8.2" font-family="sans-serif" font-size="14.00">dependencies</text>
<g id="clust1" class="cluster">
<title>cluster_AppModule</title>
<polygon fill="none" stroke="black" stroke-dasharray="1,5" points="308,-32.8 308,-233.8 582,-233.8 582,-32.8 308,-32.8"/>
</g>
<g id="clust3" class="cluster">
<title>cluster_AppModule_imports</title>
<polygon fill="none" stroke="black" points="454,-40.8 454,-168.8 562,-168.8 562,-40.8 454,-40.8"/>
</g>
<g id="clust6" class="cluster">
<title>cluster_AppModule_providers</title>
<polygon fill="none" stroke="black" points="316,-116.8 316,-168.8 446,-168.8 446,-116.8 316,-116.8"/>
</g>
<g id="clust7" class="cluster">
<title>cluster_RolesModule</title>
<polygon fill="none" stroke="black" stroke-dasharray="1,5" points="590,-108.8 590,-176.8 864,-176.8 864,-108.8 590,-108.8"/>
</g>
<g id="clust10" class="cluster">
<title>cluster_RolesModule_exports</title>
<polygon fill="none" stroke="black" points="746,-116.8 746,-168.8 856,-168.8 856,-116.8 746,-116.8"/>
</g>
<g id="clust12" class="cluster">
<title>cluster_RolesModule_providers</title>
<polygon fill="none" stroke="black" points="598,-116.8 598,-168.8 738,-168.8 738,-116.8 598,-116.8"/>
</g>
<g id="clust13" class="cluster">
<title>cluster_UsersModule</title>
<polygon fill="none" stroke="black" stroke-dasharray="1,5" points="8,-32.8 8,-100.8 300,-100.8 300,-32.8 8,-32.8"/>
</g>
<g id="clust18" class="cluster">
<title>cluster_UsersModule_providers</title>
<polygon fill="none" stroke="black" points="16,-40.8 16,-92.8 292,-92.8 292,-40.8 16,-40.8"/>
</g>
<!-- RolesModule -->
<g id="node1" class="node">
<title>RolesModule</title>
<polygon fill="#8dd3c7" stroke="black" points="553.94,-84.8 550.94,-88.8 529.94,-88.8 526.94,-84.8 462.06,-84.8 462.06,-48.8 553.94,-48.8 553.94,-84.8"/>
<text text-anchor="middle" x="508" y="-62.6" font-family="Times,serif" font-size="14.00">RolesModule</text>
</g>
<!-- UsersModule -->
<g id="node2" class="node">
<title>UsersModule</title>
<polygon fill="#8dd3c7" stroke="black" points="553.94,-160.8 550.94,-164.8 529.94,-164.8 526.94,-160.8 462.06,-160.8 462.06,-124.8 553.94,-124.8 553.94,-160.8"/>
<text text-anchor="middle" x="508" y="-138.6" font-family="Times,serif" font-size="14.00">UsersModule</text>
</g>
<!-- RolesModule&#45;&gt;UsersModule -->
<g id="edge6" class="edge">
<title>RolesModule&#45;&gt;UsersModule</title>
<path fill="none" stroke="black" d="M523.24,-84.81C523.24,-84.81 523.24,-114.65 523.24,-114.65"/>
<polygon fill="black" stroke="black" points="519.74,-114.65 523.24,-124.65 526.74,-114.65 519.74,-114.65"/>
</g>
<!-- AppModule -->
<g id="node3" class="node">
<title>AppModule</title>
<polygon fill="#8dd3c7" stroke="black" points="549.66,-225.8 546.66,-229.8 525.66,-229.8 522.66,-225.8 466.34,-225.8 466.34,-189.8 549.66,-189.8 549.66,-225.8"/>
<text text-anchor="middle" x="508" y="-203.6" font-family="Times,serif" font-size="14.00">AppModule</text>
</g>
<!-- RolesModule&#45;&gt;AppModule -->
<g id="edge1" class="edge">
<title>RolesModule&#45;&gt;AppModule</title>
<path fill="none" stroke="black" d="M462.02,-72.8C457.22,-72.8 454.06,-72.8 454.06,-72.8 454.06,-72.8 454.06,-201.8 454.06,-201.8 454.06,-201.8 456.3,-201.8 456.3,-201.8"/>
<polygon fill="black" stroke="black" points="456.3,-205.3 466.3,-201.8 456.3,-198.3 456.3,-205.3"/>
</g>
<!-- RolesService  -->
<g id="node5" class="node">
<title>RolesService </title>
<polygon fill="#fb8072" stroke="black" points="847.87,-160.8 754.13,-160.8 754.13,-124.8 847.87,-124.8 847.87,-160.8"/>
<text text-anchor="middle" x="801" y="-138.6" font-family="Times,serif" font-size="14.00">RolesService </text>
</g>
<!-- RolesModule&#45;&gt;RolesService  -->
<g id="edge4" class="edge">
<title>RolesModule&#45;&gt;RolesService </title>
<path fill="none" stroke="black" stroke-dasharray="5,2" d="M553.78,-60.8C636.19,-60.8 801,-60.8 801,-60.8 801,-60.8 801,-114.6 801,-114.6"/>
<polygon fill="black" stroke="black" points="797.5,-114.6 801,-124.6 804.5,-114.6 797.5,-114.6"/>
</g>
<!-- UsersModule&#45;&gt;AppModule -->
<g id="edge2" class="edge">
<title>UsersModule&#45;&gt;AppModule</title>
<path fill="none" stroke="black" d="M508,-160.91C508,-160.91 508,-179.79 508,-179.79"/>
<polygon fill="black" stroke="black" points="504.5,-179.79 508,-189.79 511.5,-179.79 504.5,-179.79"/>
</g>
<!-- AppService -->
<g id="node4" class="node">
<title>AppService</title>
<ellipse fill="#fdb462" stroke="black" cx="381" cy="-142.8" rx="56.75" ry="18"/>
<text text-anchor="middle" x="381" y="-138.6" font-family="Times,serif" font-size="14.00">AppService</text>
</g>
<!-- AppService&#45;&gt;AppModule -->
<g id="edge3" class="edge">
<title>AppService&#45;&gt;AppModule</title>
<path fill="none" stroke="black" d="M381,-161.08C381,-182.12 381,-213.8 381,-213.8 381,-213.8 456.06,-213.8 456.06,-213.8"/>
<polygon fill="black" stroke="black" points="456.06,-217.3 466.06,-213.8 456.06,-210.3 456.06,-217.3"/>
</g>
<!-- RolesService -->
<g id="node6" class="node">
<title>RolesService</title>
<ellipse fill="#fdb462" stroke="black" cx="668" cy="-142.8" rx="61.98" ry="18"/>
<text text-anchor="middle" x="668" y="-138.6" font-family="Times,serif" font-size="14.00">RolesService</text>
</g>
<!-- RolesService&#45;&gt;RolesModule -->
<g id="edge5" class="edge">
<title>RolesService&#45;&gt;RolesModule</title>
<path fill="none" stroke="black" d="M668,-124.77C668,-104.03 668,-72.8 668,-72.8 668,-72.8 563.85,-72.8 563.85,-72.8"/>
<polygon fill="black" stroke="black" points="563.85,-69.3 553.85,-72.8 563.85,-76.3 563.85,-69.3"/>
</g>
<!-- AuthService -->
<g id="node7" class="node">
<title>AuthService</title>
<ellipse fill="#fdb462" stroke="black" cx="225" cy="-66.8" rx="59.11" ry="18"/>
<text text-anchor="middle" x="225" y="-62.6" font-family="Times,serif" font-size="14.00">AuthService</text>
</g>
<!-- AuthService&#45;&gt;UsersModule -->
<g id="edge7" class="edge">
<title>AuthService&#45;&gt;UsersModule</title>
<path fill="none" stroke="black" d="M281.01,-60.8C346.44,-60.8 445.84,-60.8 445.84,-60.8 445.84,-60.8 445.84,-142.8 445.84,-142.8 445.84,-142.8 452.17,-142.8 452.17,-142.8"/>
<polygon fill="black" stroke="black" points="452.17,-146.3 462.17,-142.8 452.17,-139.3 452.17,-146.3"/>
</g>
<!-- UsersService -->
<g id="node8" class="node">
<title>UsersService</title>
<ellipse fill="#fdb462" stroke="black" cx="86" cy="-66.8" rx="61.97" ry="18"/>
<text text-anchor="middle" x="86" y="-62.6" font-family="Times,serif" font-size="14.00">UsersService</text>
</g>
<!-- UsersService&#45;&gt;UsersModule -->
<g id="edge8" class="edge">
<title>UsersService&#45;&gt;UsersModule</title>
<path fill="none" stroke="black" d="M86,-84.91C86,-94.7 86,-104.8 86,-104.8 86,-104.8 492.76,-104.8 492.76,-104.8 492.76,-104.8 492.76,-114.69 492.76,-114.69"/>
<polygon fill="black" stroke="black" points="489.26,-114.69 492.76,-124.69 496.26,-114.69 489.26,-114.69"/>
</g>
</g>
</svg>
